<svg width="24" height="24" viewBox="0 0 24 24" fill="none" xmlns="http://www.w3.org/2000/svg">
<path d="M22 5.00134V9.00672L12 13.0121L2 9.00672V5.00134C2 4.73577 2.10536 4.48108 2.29289 4.29329C2.48043 4.1055 2.73478 4 3 4H21C21.2652 4 21.5196 4.1055 21.7071 4.29329C21.8946 4.48108 22 4.73577 22 5.00134ZM2 11.1636V19.0202C2 19.2857 2.10536 19.5404 2.29289 19.7282C2.48043 19.916 2.73478 20.0215 3 20.0215H21C21.2652 20.0215 21.5196 19.916 21.7071 19.7282C21.8946 19.5404 22 19.2857 22 19.0202V11.1636L12 15.169L2 11.1636Z" fill="black"/>
</svg>
