<svg width="387" height="584" viewBox="0 0 387 584" fill="none" xmlns="http://www.w3.org/2000/svg">
<path d="M249.426 555.913L254.838 494.783C255.796 483.957 264.872 475.656 275.748 475.656C286.625 475.656 295.729 483.986 296.663 494.83L301.929 555.913M249.426 555.913L275.902 529.908M249.426 555.913L275.902 582.367L301.929 555.913M249.426 555.913L226.091 578.779L236.649 508.634C239.428 489.694 255.69 475.656 274.849 475.656C294.007 475.656 310.173 489.606 313.024 508.473L323.918 578.779L301.929 555.913M301.929 555.913L275.902 529.908M275.902 529.908V313.151M347.701 499.418L275.902 426.783L202.308 499.418M347.701 471.171L275.902 398.535L202.308 471.171M347.701 444.269L275.902 371.634L202.308 444.269M347.701 417.368L275.902 344.732L202.308 417.368" stroke="#191AFE"/>
<path d="M33.8616 400.821L89.5081 374.942C99.3617 370.36 111.089 374.069 116.527 383.488C121.975 392.924 119.304 404.955 110.379 411.189L60.1122 446.291M33.8616 400.821L69.6204 410.747L257.336 302.37M33.8616 400.821L24.1902 436.976L60.1141 446.289M33.8616 400.821L2.39099 392.045L68.4188 366.116C86.2108 359.052 106.499 366.116 116.077 382.708C125.626 399.247 121.658 420.276 106.744 432.178L51.3025 476.765L60.1122 446.289M60.1141 446.291L69.6223 410.749M131.924 457.682L158.928 359.185L59.2276 331.769M156.388 443.559L183.392 345.063L83.6919 317.647M179.685 430.109L206.689 331.612L106.989 304.196M202.982 416.658L229.986 318.161L130.286 290.745" stroke="#191AFE"/>
<path d="M60.3932 136.592L110.628 171.844C119.525 178.087 122.175 190.097 116.736 199.516C111.288 208.952 99.5327 212.655 89.6733 208.041L34.1427 182.06L69.6774 172.521M60.3932 136.592L69.6755 172.523M60.3932 136.592L24.2453 146.293L34.1408 182.06M60.3932 136.592L52.2574 104.95L107.725 149.167C122.738 161.045 126.765 182.145 117.186 198.738C107.638 215.277 87.4429 222.355 69.6774 215.391L3.34399 189.672L34.1408 182.062M69.6774 172.523L257.393 280.9M60.1806 249.946L158.985 224.085L132.879 124.033M84.6449 264.071L183.447 238.209L157.341 138.158M107.942 277.521L206.744 251.66L180.638 151.609M131.239 290.972L230.041 265.111L203.935 165.059" stroke="#191AFE"/>
<path d="M302.488 27.4536L297.077 88.584C296.118 99.4096 287.043 107.711 276.166 107.711C265.289 107.711 256.185 99.3811 255.251 88.5366L249.985 27.4536M302.488 27.4536L276.012 53.4593L249.985 27.4536M302.488 27.4536L276.014 1L249.987 27.4536M302.488 27.4536L325.823 4.58764L315.265 74.7327C312.486 93.6732 296.224 107.711 277.066 107.711C257.907 107.711 241.742 93.7605 238.89 74.894L227.996 4.58764L249.985 27.4536M276.014 53.4574V270.214M204.214 83.9467L276.012 156.582L349.606 83.9467M204.214 112.194L276.012 184.83L349.606 112.194M204.214 139.096L276.012 211.731L349.606 139.096M204.214 165.997L276.012 238.633L349.606 165.997" stroke="#191AFE"/>
<path d="M518.053 182.544L462.406 208.423C452.553 213.005 440.826 209.296 435.387 199.877C429.939 190.441 432.61 178.41 441.536 172.176L491.802 137.074M518.053 182.544L482.294 172.619M518.053 182.544L527.724 146.389L491.8 137.076M518.053 182.544L549.524 191.32L483.496 217.25C465.704 224.313 445.415 217.25 435.837 200.657C426.289 184.118 430.256 163.09 445.171 151.188L500.612 106.6L491.802 137.076L482.294 172.619M482.294 172.619L294.579 280.996M419.991 125.683L392.987 224.18L492.687 251.596M395.528 139.808L368.524 238.305L468.225 265.721M372.231 153.259L345.227 251.756L444.928 279.172M348.933 166.709L321.928 265.206L421.629 292.622" stroke="#191AFE"/>
<path d="M491.521 446.775L441.287 411.523C432.39 405.28 429.74 393.27 435.178 383.851C440.626 374.415 452.382 370.711 462.241 375.326L517.772 401.307M491.521 446.775L482.239 410.844M491.521 446.775L527.669 437.073L517.774 401.307M491.521 446.775L499.657 478.417L444.189 434.199C429.176 422.322 425.15 401.222 434.728 384.629C444.276 368.09 464.472 361.011 482.237 367.976L548.57 393.695L517.774 401.305L482.239 410.844M482.239 410.844L294.524 302.466M491.734 333.419L392.929 359.28L419.036 459.332M467.271 319.296L368.469 345.158L394.575 445.209M443.975 305.845L345.172 331.707L371.278 431.758M420.676 292.395L321.873 318.256L347.98 418.307" stroke="#191AFE"/>
</svg>
