<svg width="333" height="333" viewBox="0 0 333 333" fill="none" xmlns="http://www.w3.org/2000/svg">
<path d="M210.989 121.511V122.011H211.489L288.446 122.011C312.776 122.011 332.5 141.734 332.5 166.064C332.5 190.395 312.776 210.118 288.446 210.118H211.489H210.989V210.618L210.989 287.575C210.989 311.905 191.266 331.629 166.936 331.629C142.605 331.629 122.882 311.905 122.882 287.575L122.882 210.618V210.118H122.382L45.425 210.118C21.0947 210.118 1.37109 190.395 1.37109 166.064C1.37109 141.734 21.0947 122.011 45.425 122.011L122.382 122.011H122.882V121.511V44.5539C122.882 20.2236 142.605 0.5 166.936 0.5C191.266 0.5 210.989 20.2236 210.989 44.5539V121.511Z" stroke="#CACBCB"/>
<path d="M229.296 166.447L228.946 166.8L229.296 167.152L282.917 221.077C300.041 238.299 300.041 266.222 282.917 283.444C265.794 300.664 238.033 300.664 220.91 283.444L167.29 229.519L166.935 229.162L166.581 229.519L112.961 283.444C95.8378 300.664 68.0772 300.664 50.9542 283.444C33.8297 266.222 33.8297 238.299 50.9542 221.077L104.574 167.152L104.925 166.8L104.574 166.447L50.9542 112.522C33.8297 95.3005 33.8297 67.3772 50.9542 50.1554C68.0772 32.9352 95.8377 32.9352 112.961 50.1554L166.581 104.08L166.935 104.437L167.29 104.08L220.91 50.1554C238.033 32.9352 265.794 32.9352 282.917 50.1554C300.041 67.3772 300.041 95.3005 282.917 112.522L229.296 166.447Z" stroke="#CACBCB"/>
</svg>
