<svg width="452" height="289" viewBox="0 0 452 289" fill="none" xmlns="http://www.w3.org/2000/svg">
<path d="M67.0262 155.914V77.2773M67.0262 155.914L223.052 234.943M67.0262 155.914L86.2838 118.561M67.0262 155.914L105.934 118.561M67.0262 39.1386V77.2773M67.0262 77.2773L27.3319 39.1386M67.0262 77.2773L45.8035 39.1386M67.0262 77.2773L87.4629 39.1386M67.0262 77.2773L108.686 39.1386M67.0262 77.2773L144.057 60.3705M27.3319 39.1386L15.1485 2.96591M27.3319 39.1386L39.9083 2.96591M27.3319 39.1386L55.2358 2.96591M27.3319 39.1386L1 2.96591M108.686 39.1386L119.297 2.96591M108.686 39.1386L93.3581 2.96591M108.686 39.1386L80.7817 2.96591M108.686 39.1386L133.445 2.96591M144.057 60.3705V39.1386M144.057 60.3705L131.873 39.1386M144.057 60.3705L155.454 39.1386M223.052 234.943V289M223.052 234.943V155.914M223.052 234.943L382.223 155.914M223.052 39.1386V77.2773M223.052 155.914L245.454 118.561M223.052 155.914L265.105 118.561M223.052 155.914V77.2773M223.052 77.2773L245.454 39.1386M223.052 77.2773L265.105 39.1386M223.052 77.2773L203.402 39.1386M223.052 77.2773L184.144 39.1386M265.105 39.1386L251.349 1M265.105 39.1386L278.467 1M265.105 39.1386L291.83 1M265.105 39.1386L236.808 1M184.144 39.1386L198.686 1M184.144 39.1386L212.441 1M184.144 39.1386L171.175 1M184.144 39.1386L157.419 1M382.223 155.914L402.659 118.561M382.223 155.914L423.882 118.561M382.223 155.914V77.2773M382.223 39.1386V77.2773M382.223 77.2773L423.882 39.1386M382.223 77.2773L402.659 39.1386M382.223 77.2773L360.607 39.1386M382.223 77.2773L342.528 39.1386M423.882 39.1386L435.672 1M423.882 39.1386L451 1M423.882 39.1386L409.341 1M423.882 39.1386L395.585 1M342.528 39.1386L357.463 1M342.528 39.1386L372.004 1M342.528 39.1386L328.773 1M342.528 39.1386L315.017 1" stroke="black"/>
</svg>
