<svg width="24" height="24" viewBox="0 0 24 24" fill="none" xmlns="http://www.w3.org/2000/svg">
<path fill-rule="evenodd" clip-rule="evenodd" d="M3.32723 10.8879C8.50982 8.62993 11.9657 7.14133 13.6948 6.42212C18.6319 4.36862 19.6578 4.0119 20.3265 4.00013C20.4735 3.99753 20.8023 4.03398 21.0153 4.20682C21.1952 4.35275 21.2447 4.5499 21.2684 4.68826C21.292 4.82663 21.3215 5.14183 21.2981 5.38811C21.0305 8.1992 19.8729 15.021 19.2839 18.1694C19.0347 19.5017 18.544 19.9484 18.069 19.9921C17.0366 20.0871 16.2527 19.3098 15.2527 18.6543C13.6881 17.6287 12.8041 16.9902 11.2853 15.9893C9.53011 14.8327 10.668 14.1969 11.6682 13.158C11.93 12.8861 16.4788 8.74868 16.5668 8.37335C16.5778 8.32641 16.588 8.15143 16.4841 8.05904C16.3801 7.96664 16.2267 7.99824 16.116 8.02337C15.9591 8.05898 13.4595 9.71112 8.61723 12.9798C7.90773 13.467 7.26509 13.7044 6.6893 13.6919C6.05454 13.6782 4.83352 13.333 3.92582 13.038C2.81248 12.676 1.92763 12.4847 2.00468 11.8701C2.04481 11.55 2.48566 11.2226 3.32723 10.8879Z" fill="black"/>
</svg>
